<svg width="32" height="32" viewBox="0 0 32 32" fill="none" xmlns="http://www.w3.org/2000/svg">
<path d="M16 32C13.8133 32 11.7467 31.58 9.8 30.74C7.85333 29.9 6.15333 28.7533 4.7 27.3C3.24667 25.8467 2.1 24.1467 1.26 22.2C0.42 20.2533 0 18.1867 0 16C0 13.7867 0.42 11.7067 1.26 9.76C2.1 7.81333 3.24667 6.12 4.7 4.68C6.15333 3.24 7.85333 2.1 9.8 1.26C11.7467 0.42 13.8133 0 16 0C18.2133 0 20.2933 0.42 22.24 1.26C24.1867 2.1 25.88 3.24 27.32 4.68C28.76 6.12 29.9 7.81333 30.74 9.76C31.58 11.7067 32 13.7867 32 16C32 18.1867 31.58 20.2533 30.74 22.2C29.9 24.1467 28.76 25.8467 27.32 27.3C25.88 28.7533 24.1867 29.9 22.24 30.74C20.2933 31.58 18.2133 32 16 32ZM16 29.6C19.7867 29.6 23 28.2733 25.64 25.62C28.28 22.9667 29.6 19.76 29.6 16C29.6 12.2133 28.28 9 25.64 6.36C23 3.72 19.7867 2.4 16 2.4C12.24 2.4 9.03333 3.72 6.38 6.36C3.72667 9 2.4 12.2133 2.4 16C2.4 19.76 3.72667 22.9667 6.38 25.62C9.03333 28.2733 12.24 29.6 16 29.6ZM16 29.6C12.24 29.6 9.03333 28.2733 6.38 25.62C3.72667 22.9667 2.4 19.76 2.4 16C2.4 12.2133 3.72667 9 6.38 6.36C9.03333 3.72 12.24 2.4 16 2.4C19.7867 2.4 23 3.72 25.64 6.36C28.28 9 29.6 12.2133 29.6 16C29.6 19.76 28.28 22.9667 25.64 25.62C23 28.2733 19.7867 29.6 16 29.6Z" fill="#222222"/>
<path d="M10.273 25.9565L10.009 20.8205V19.0925H23.593V20.8205L23.329 25.9565H20.881V21.4445H12.721V25.9565H10.273ZM18.985 21.4445V8.10046H16.009C15.897 8.86846 15.793 9.54046 15.697 10.1165C15.617 10.6925 15.529 11.2845 15.433 11.8925C15.353 12.4845 15.241 13.1725 15.097 13.9565C14.905 15.1245 14.681 16.1325 14.425 16.9805C14.169 17.8285 13.881 18.5325 13.561 19.0925C13.257 19.6365 12.913 20.0445 12.529 20.3165C12.161 20.5885 11.745 20.7485 11.281 20.7965L10.705 19.0925C10.913 19.0285 11.121 18.8125 11.329 18.4445C11.537 18.0765 11.745 17.5005 11.953 16.7165C12.177 15.9325 12.401 14.8845 12.625 13.5725C12.801 12.5805 12.953 11.7005 13.081 10.9325C13.209 10.1485 13.329 9.35646 13.441 8.55646C13.569 7.74046 13.705 6.80446 13.849 5.74846H21.769V21.4445H18.985Z" fill="white"/>
</svg>
